<svg width="25" height="25" viewBox="0 0 25 25" fill="none" xmlns="http://www.w3.org/2000/svg">
<g clip-path="url(#clip0_18_684)">
<path d="M12.2913 0C5.50305 0 0 5.50305 0 12.2913C0 18.0554 3.9686 22.8922 9.32219 24.2207V16.0475H6.78773V12.2913H9.32219V10.6728C9.32219 6.4893 11.2155 4.55023 15.3228 4.55023C16.1016 4.55023 17.4452 4.70313 17.9949 4.85554V8.26022C17.7048 8.22974 17.2009 8.2145 16.575 8.2145C14.5597 8.2145 13.781 8.97803 13.781 10.9628V12.2913H17.7958L17.106 16.0475H13.781V24.4926C19.8671 23.7575 24.583 18.5755 24.583 12.2913C24.5825 5.50305 19.0795 0 12.2913 0Z" fill="white"/>
</g>
<defs>
<clipPath id="clip0_18_684">
<rect width="24.5825" height="24.5825" fill="white"/>
</clipPath>
</defs>
</svg>
