<svg width="25" height="25" viewBox="0 0 25 25" fill="none" xmlns="http://www.w3.org/2000/svg">
<g clip-path="url(#clip0_18_682)">
<path d="M12.4563 2.21339C15.7404 2.21339 16.1293 2.22779 17.4208 2.28541C18.6211 2.33822 19.2693 2.53987 19.7014 2.70792C20.2728 2.92878 20.6857 3.19765 21.113 3.62496C21.5451 4.05708 21.8092 4.46519 22.03 5.03654C22.1981 5.46865 22.3997 6.12163 22.4526 7.31714C22.5102 8.61349 22.5246 9.00239 22.5246 12.2817C22.5246 15.5657 22.5102 15.9546 22.4526 17.2462C22.3997 18.4465 22.1981 19.0947 22.03 19.5268C21.8092 20.0981 21.5403 20.511 21.113 20.9384C20.6809 21.3705 20.2728 21.6345 19.7014 21.8554C19.2693 22.0235 18.6163 22.2251 17.4208 22.2779C16.1245 22.3355 15.7356 22.3499 12.4563 22.3499C9.17223 22.3499 8.78333 22.3355 7.49179 22.2779C6.29147 22.2251 5.64329 22.0235 5.21118 21.8554C4.63983 21.6345 4.22692 21.3657 3.7996 20.9384C3.36749 20.5062 3.10342 20.0981 2.88256 19.5268C2.71452 19.0947 2.51286 18.4417 2.46005 17.2462C2.40243 15.9498 2.38803 15.5609 2.38803 12.2817C2.38803 8.99759 2.40243 8.60869 2.46005 7.31714C2.51286 6.11682 2.71452 5.46865 2.88256 5.03654C3.10342 4.46519 3.37229 4.05228 3.7996 3.62496C4.23172 3.19285 4.63983 2.92878 5.21118 2.70792C5.64329 2.53987 6.29627 2.33822 7.49179 2.28541C8.78333 2.22779 9.17223 2.21339 12.4563 2.21339ZM12.4563 0C9.11942 0 8.70171 0.0144038 7.39096 0.0720191C6.08501 0.129634 5.18717 0.34089 4.40937 0.643371C3.59795 0.960255 2.91137 1.37797 2.22959 2.06455C1.54301 2.74633 1.12529 3.43291 0.80841 4.23953C0.50593 5.02213 0.294674 5.91517 0.237058 7.22112C0.179443 8.53667 0.165039 8.95438 0.165039 12.2913C0.165039 15.6282 0.179443 16.0459 0.237058 17.3566C0.294674 18.6626 0.50593 19.5604 0.80841 20.3382C1.12529 21.1496 1.54301 21.8362 2.22959 22.518C2.91137 23.1998 3.59795 23.6223 4.40457 23.9344C5.18717 24.2368 6.08021 24.4481 7.38616 24.5057C8.69691 24.5633 9.11462 24.5777 12.4515 24.5777C15.7884 24.5777 16.2061 24.5633 17.5168 24.5057C18.8228 24.4481 19.7206 24.2368 20.4984 23.9344C21.3051 23.6223 21.9916 23.1998 22.6734 22.518C23.3552 21.8362 23.7777 21.1496 24.0898 20.343C24.3923 19.5604 24.6035 18.6674 24.6611 17.3614C24.7188 16.0507 24.7332 15.633 24.7332 12.2961C24.7332 8.95918 24.7188 8.54147 24.6611 7.23072C24.6035 5.92477 24.3923 5.02694 24.0898 4.24913C23.7873 3.43291 23.3696 2.74633 22.683 2.06455C22.0012 1.38277 21.3147 0.960255 20.508 0.648172C19.7254 0.345692 18.8324 0.134436 17.5265 0.0768204C16.2109 0.0144038 15.7932 0 12.4563 0Z" fill="white"/>
<path d="M12.4563 5.9776C8.97053 5.9776 6.14258 8.80555 6.14258 12.2913C6.14258 15.777 8.97053 18.605 12.4563 18.605C15.942 18.605 18.7699 15.777 18.7699 12.2913C18.7699 8.80555 15.942 5.9776 12.4563 5.9776ZM12.4563 16.3868C10.1949 16.3868 8.36077 14.5527 8.36077 12.2913C8.36077 10.0299 10.1949 8.19579 12.4563 8.19579C14.7177 8.19579 16.5517 10.0299 16.5517 12.2913C16.5517 14.5527 14.7177 16.3868 12.4563 16.3868Z" fill="white"/>
<path d="M20.4936 5.72787C20.4936 6.54409 19.8311 7.20186 19.0196 7.20186C18.2034 7.20186 17.5457 6.53929 17.5457 5.72787C17.5457 4.91165 18.2082 4.25388 19.0196 4.25388C19.8311 4.25388 20.4936 4.91645 20.4936 5.72787Z" fill="white"/>
</g>
<defs>
<clipPath id="clip0_18_682">
<rect width="24.5825" height="24.5825" fill="white" transform="translate(0.165039)"/>
</clipPath>
</defs>
</svg>
