<svg width="242" height="58" viewBox="0 0 242 58" fill="none" xmlns="http://www.w3.org/2000/svg">
<g clip-path="url(#clip0_27_9)">
<path d="M74.5247 22.9617C75.8684 22.9082 77.2083 23.1377 78.4577 23.6351C79.3998 24.0289 80.1906 24.7147 80.7138 25.5915C81.2204 26.5013 81.4728 27.5307 81.4445 28.5716C81.476 29.6011 81.2232 30.6194 80.7138 31.5146C80.1839 32.36 79.3914 33.0082 78.4577 33.3599C77.2008 33.8276 75.8653 34.0483 74.5247 34.0097H71.6154V42.6973H73.9961V42.896H66.7025V42.6973H69.0798V23.1671H66.7025V22.9684L74.5247 22.9617ZM71.6154 33.7976H74.5247C75.1254 33.8094 75.7164 33.6456 76.2252 33.3262C76.7276 33.0056 77.1539 32.5793 77.4745 32.0769C77.8128 31.5566 78.0726 30.9893 78.2456 30.3933C78.4181 29.8059 78.5076 29.1972 78.5116 28.5851C78.5067 27.9652 78.4172 27.3489 78.2456 26.7532C78.0716 26.1332 77.8121 25.5405 77.4745 24.9922C77.1567 24.4683 76.7308 24.0183 76.2252 23.6722C75.7236 23.3333 75.1299 23.157 74.5247 23.1671H71.6154V33.7976Z" fill="white"/>
<path d="M88.0074 32.7368V32.6021H91.9909C92.7515 32.6257 93.503 32.4306 94.156 32.0398C94.7569 31.6483 95.2262 31.0851 95.5029 30.4235C95.8304 29.6334 95.9887 28.7834 95.9676 27.9284C95.9872 27.0658 95.829 26.2084 95.5029 25.4096C95.2255 24.7367 94.7573 24.1597 94.156 23.7496C93.5096 23.3407 92.7553 23.1354 91.9909 23.1603H83.2359V22.9616H91.9909C93.1791 22.9392 94.3628 23.1156 95.4928 23.4835C96.4108 23.7791 97.2182 24.3448 97.8095 25.1066C98.3879 25.9306 98.6779 26.9226 98.6345 27.9284C98.6804 28.9161 98.4103 29.8927 97.8634 30.7165C97.2988 31.4603 96.5085 32.0014 95.6107 32.2587C94.4357 32.6025 93.2149 32.7638 91.9909 32.7368H88.0074ZM83.2258 42.8825V42.6838H91.5902V42.8825H83.2258ZM86.1352 42.7781V23.0929H88.6707V42.7646L86.1352 42.7781ZM98.4998 43.0172C97.8712 43.0528 97.2459 42.9029 96.7017 42.5861C96.2761 42.3037 95.948 41.8968 95.7622 41.4211C95.5601 40.8979 95.4375 40.3474 95.3986 39.7879C95.3514 39.1852 95.3211 38.5622 95.311 37.9157C95.3009 37.2692 95.2672 36.6429 95.2066 36.0368C95.1546 35.4723 95.0161 34.9192 94.7958 34.3969C94.5874 33.9145 94.2345 33.5085 93.7856 33.2352C93.1983 32.9158 92.5339 32.7654 91.8663 32.8008H88.0074V32.683H92.3848C93.4378 32.6376 94.4878 32.8262 95.4592 33.2352C96.1524 33.5456 96.7441 34.0451 97.1664 34.6764C97.549 35.2725 97.8057 35.9406 97.9207 36.6395C98.0443 37.3481 98.1119 38.0653 98.1227 38.7845C98.1227 39.4983 98.1463 40.155 98.1665 40.751C98.1678 41.2454 98.265 41.7348 98.4527 42.1922C98.5345 42.3692 98.669 42.5166 98.8377 42.6142C99.0065 42.7118 99.2013 42.755 99.3955 42.7377C99.6556 42.7401 99.9148 42.7084 100.167 42.6434C100.386 42.5904 100.599 42.5148 100.803 42.4178L100.884 42.5929C100.589 42.734 100.276 42.8337 99.9545 42.8892C99.4751 42.9802 98.9878 43.0231 98.4998 43.0172Z" fill="white"/>
<path d="M111.04 43.1485C109.794 43.1716 108.561 42.9005 107.44 42.3572C106.393 41.8367 105.478 41.0862 104.763 40.1617C104.014 39.1853 103.451 38.0792 103.103 36.8988C102.718 35.6087 102.527 34.2684 102.537 32.922C102.528 31.5777 102.73 30.2402 103.137 28.9588C103.506 27.7758 104.088 26.6701 104.854 25.6959C105.582 24.7761 106.501 24.0258 107.548 23.497C108.638 22.9783 109.83 22.7092 111.038 22.7092C112.245 22.7092 113.438 22.9783 114.528 23.497C115.575 24.0258 116.494 24.7761 117.222 25.6959C117.983 26.6717 118.561 27.7771 118.929 28.9588C119.338 30.24 119.543 31.5773 119.539 32.922C119.549 34.2684 119.358 35.6087 118.973 36.8988C118.627 38.0788 118.067 39.1849 117.32 40.1617C116.609 41.0866 115.697 41.8374 114.653 42.3572C113.528 42.9022 112.29 43.1733 111.04 43.1485ZM111.04 42.9633C112.05 43.0104 113.044 42.7004 113.848 42.0878C114.587 41.4651 115.152 40.661 115.488 39.7543C115.887 38.7125 116.15 37.6238 116.272 36.5149C116.414 35.3225 116.485 34.1228 116.485 32.922C116.484 31.718 116.402 30.5154 116.239 29.3224C116.094 28.2118 115.808 27.1242 115.387 26.0865C115.032 25.1856 114.462 24.3855 113.727 23.7563C112.944 23.1864 112.001 22.8794 111.033 22.8794C110.065 22.8794 109.122 23.1864 108.339 23.7563C107.599 24.3832 107.027 25.1838 106.672 26.0865C106.251 27.1242 105.965 28.2118 105.82 29.3224C105.657 30.5154 105.575 31.718 105.575 32.922C105.574 34.1229 105.646 35.3228 105.79 36.5149C105.911 37.6237 106.173 38.7123 106.571 39.7543C106.909 40.6633 107.479 41.4679 108.225 42.0878C109.032 42.6989 110.028 43.0085 111.04 42.9633Z" fill="white"/>
<path d="M128.768 22.9616C130.56 22.9129 132.329 23.3654 133.877 24.2681C135.291 25.1232 136.437 26.3589 137.183 27.834C137.86 29.2308 138.25 30.7491 138.33 32.2991C138.409 33.8492 138.178 35.3994 137.648 36.8584C137.205 38.0332 136.535 39.1097 135.678 40.027C134.825 40.9314 133.793 41.6481 132.647 42.1315C131.419 42.6444 130.099 42.9 128.768 42.8824H121.344V42.6838H123.724V23.1535H121.344V22.9548L128.768 22.9616ZM126.273 42.6838H128.782C129.869 42.7207 130.943 42.4298 131.863 41.8487C132.71 41.2823 133.404 40.5154 133.883 39.6162C134.408 38.6318 134.776 37.5719 134.974 36.4745C135.197 35.3033 135.309 34.114 135.311 32.922C135.312 31.7259 135.188 30.533 134.941 29.3628C134.715 28.2668 134.328 27.2103 133.792 26.2278C133.304 25.3348 132.612 24.5698 131.772 23.9953C130.887 23.4216 129.849 23.1303 128.795 23.1602H126.273V42.6838Z" fill="white"/>
<path d="M157.899 22.9617V23.1603H155.596V36.9662C155.596 39.1527 155.129 40.7836 154.195 41.8589C153.261 42.9342 151.744 43.4718 149.646 43.4718C147.352 43.4718 145.17 42.7579 144.103 41.7343C143.036 40.7106 142.504 39.0405 142.504 36.7608V23.1603H140.126V22.9617H147.696V23.1603H145.039V36.5083C145.036 37.3427 145.1 38.176 145.231 39C145.341 39.7253 145.575 40.426 145.925 41.0709C146.25 41.6644 146.739 42.1527 147.332 42.4785C148.061 42.8487 148.873 43.025 149.689 42.9903C150.699 43.0223 151.699 42.7902 152.592 42.3168C153.387 41.8503 154.002 41.1289 154.336 40.2695C154.751 39.1528 154.941 37.9648 154.895 36.7743V23.1603H152.397V22.9617H157.899Z" fill="white"/>
<path d="M168.549 43.1486C166.882 43.1811 165.243 42.722 163.835 41.8286C162.466 40.9324 161.372 39.6749 160.673 38.1953C159.897 36.5476 159.511 34.7432 159.545 32.9221C159.511 31.1011 159.897 29.2966 160.673 27.649C161.371 26.1688 162.466 24.9111 163.835 24.0157C165.243 23.1223 166.882 22.6632 168.549 22.6957C169.415 22.6889 170.273 22.849 171.078 23.1671C171.849 23.4662 172.555 23.9096 173.159 24.4736L174.685 22.9617H174.873V28.4066H174.671C174.671 27.4032 174.371 26.4228 173.809 25.5916C173.262 24.7803 172.517 24.122 171.644 23.679C170.77 23.2283 169.799 22.9972 168.815 23.0055C167.775 22.9724 166.75 23.2733 165.893 23.8642C165.074 24.4594 164.413 25.2454 163.967 26.1539C163.462 27.1651 163.104 28.2435 162.906 29.3562C162.461 31.724 162.461 34.1539 162.906 36.5218C163.104 37.6367 163.461 38.7174 163.967 39.7308C164.414 40.6387 165.075 41.4245 165.893 42.0206C166.751 42.6102 167.775 42.9099 168.815 42.8758C169.663 42.8872 170.505 42.7434 171.301 42.4516C172.013 42.1872 172.666 41.7856 173.223 41.2696C173.754 40.7815 174.181 40.1918 174.479 39.5355C174.777 38.8831 174.933 38.175 174.937 37.4579H175.136V42.9028H174.951L173.543 41.2696C172.927 41.8762 172.192 42.3486 171.385 42.657C170.48 43.0014 169.517 43.1683 168.549 43.1486Z" fill="white"/>
<path d="M180.823 42.8825V42.6839H183.743V23.1536H181.089C180.423 23.127 179.762 23.2731 179.17 23.5779C178.672 23.8564 178.265 24.2711 177.995 24.7733C177.691 25.3433 177.491 25.9622 177.402 26.6017C177.287 27.3719 177.232 28.1498 177.237 28.9285H177.038V22.9617H192.989V28.9386H192.777C192.785 28.1563 192.729 27.3747 192.609 26.6017C192.517 25.9623 192.317 25.343 192.019 24.7699C191.751 24.266 191.343 23.8499 190.844 23.5711C190.252 23.2671 189.59 23.121 188.925 23.1469H186.268V42.6771H189.191V42.8758L180.823 42.8825Z" fill="white"/>
<path d="M194.158 42.8824V42.6838H197.067V23.1535H194.158V22.9548H202.791V23.1535H199.603V42.6838H202.791V42.8824H194.158Z" fill="white"/>
<path d="M213.099 43.1485C211.853 43.1716 210.62 42.9005 209.499 42.3572C208.452 41.8367 207.537 41.0862 206.822 40.1617C206.072 39.1861 205.509 38.0797 205.162 36.8988C204.777 35.6087 204.586 34.2684 204.596 32.922C204.587 31.5777 204.789 30.2402 205.196 28.9588C205.565 27.7758 206.147 26.6701 206.913 25.6959C207.641 24.7761 208.56 24.0258 209.607 23.497C210.697 22.9783 211.889 22.7092 213.097 22.7092C214.304 22.7092 215.497 22.9783 216.587 23.497C217.634 24.0258 218.553 24.7761 219.281 25.6959C220.042 26.6717 220.62 27.7771 220.988 28.9588C221.394 30.245 221.595 31.5869 221.584 32.9355C221.594 34.2819 221.404 35.6222 221.018 36.9123C220.673 38.0923 220.112 39.1984 219.365 40.1752C218.654 41.1001 217.742 41.8509 216.698 42.3707C215.576 42.9089 214.343 43.1754 213.099 43.1485ZM213.099 42.9633C214.108 43.0104 215.103 42.7004 215.907 42.0878C216.646 41.4651 217.211 40.661 217.547 39.7543C217.946 38.7125 218.209 37.6238 218.331 36.5149C218.471 35.3224 218.539 34.1227 218.537 32.922C218.536 31.718 218.454 30.5154 218.291 29.3224C218.147 28.2118 217.86 27.1242 217.439 26.0865C217.085 25.1856 216.515 24.3855 215.779 23.7563C214.996 23.1864 214.053 22.8794 213.085 22.8794C212.117 22.8794 211.174 23.1864 210.391 23.7563C209.645 24.3813 209.067 25.182 208.708 26.0865C208.286 27.1242 208 28.2118 207.856 29.3224C207.693 30.5154 207.61 31.718 207.61 32.922C207.609 34.1229 207.681 35.3228 207.825 36.5149C207.945 37.624 208.207 38.7128 208.607 39.7543C208.951 40.6675 209.531 41.4736 210.287 42.0912C211.094 42.7003 212.088 43.0087 213.099 42.9633Z" fill="white"/>
<path d="M226.281 22.9616V42.6838H229.47V42.8824H223.409V42.6838H225.847V23.1535H223.409V22.9548L226.281 22.9616ZM242.01 22.9616V23.1602H239.478V43.1484H238.942L226.127 22.9616H229.181L238.996 38.8181V23.1602H235.848V22.9616H242.01Z" fill="white"/>
<path d="M33.7806 0.0437012V0.558896C32.9523 0.615776 32.1333 0.767164 31.3394 1.01011C30.3806 1.29124 29.4441 1.64354 28.5378 2.06407C27.6822 2.45258 26.8881 2.96422 26.1807 3.58272L25.0931 4.5929H24.0896C24.8944 3.68037 25.2985 2.83855 25.2985 2.07417C25.2985 1.06399 24.5128 0.558896 22.9414 0.558896H22.8976V0.0437012H33.7806Z" fill="white"/>
<path d="M30.3864 37.2355C30.7478 36.6698 30.5514 35.9414 29.7971 35.0502L20.2407 22.7427V22.406L20.1599 13.0315L20.5404 13.614L24.8505 18.7794L28.3862 23.0256L41.357 38.5993H27.6892V38.0841C29.127 38.0841 30.0294 37.8012 30.3864 37.2355Z" fill="white"/>
<path d="M11.4656 33.9288C11.4312 34.4781 11.5139 35.0284 11.7083 35.5434C11.9026 36.0583 12.2041 36.5261 12.5928 36.9158C12.9815 37.3055 13.4486 37.6081 13.963 37.8037C14.4775 37.9993 15.0277 38.0833 15.5771 38.0503H15.7825V38.5655H0V38.0503H0.208772C0.756258 38.0737 1.30277 37.9854 1.81507 37.7909C2.32738 37.5964 2.79477 37.2997 3.18882 36.9189C3.56962 36.5249 3.86629 36.0575 4.06079 35.5452C4.2553 35.0329 4.34356 34.4863 4.32023 33.9389V4.64349C4.34588 4.09321 4.25875 3.54351 4.06418 3.02814C3.86962 2.51277 3.57173 2.04263 3.18882 1.6466C2.79477 1.2658 2.32738 0.969128 1.81507 0.774626C1.30277 0.580125 0.756258 0.491858 0.208772 0.515195H0V0H15.7825V0.515195H15.5771C15.0296 0.491858 14.4831 0.580125 13.9708 0.774626C13.4585 0.969128 12.9911 1.2658 12.597 1.6466C12.2162 2.04065 11.9195 2.50804 11.725 3.02035C11.5305 3.53265 11.4423 4.07916 11.4656 4.62665V33.9288Z" fill="white"/>
<path d="M41.4176 57.5536L41.3638 57.0889C42.805 56.952 43.9532 55.77 44.8085 53.5431C45.6638 51.3162 46.0926 48.3856 46.0948 44.7512V17.6479C46.1282 17.0991 46.0447 16.5495 45.85 16.0354C45.6552 15.5212 45.3536 15.0543 44.965 14.6654C44.5764 14.2764 44.1097 13.9744 43.5957 13.7792C43.0817 13.584 42.5322 13.5001 41.9834 13.5331H41.879V13.0212H58.0217V13.5331H57.9678C57.419 13.5001 56.8695 13.584 56.3555 13.7792C55.8416 13.9744 55.3748 14.2764 54.9862 14.6654C54.5976 15.0543 54.296 15.5212 54.1012 16.0354C53.9065 16.5495 53.823 17.0991 53.8564 17.6479V44.7512C53.8922 46.9436 53.3511 49.107 52.2872 51.0244C51.2431 52.8713 49.734 54.4129 47.9098 55.4962C45.9282 56.662 43.709 57.3653 41.4176 57.5536Z" fill="white"/>
</g>
<defs>
<clipPath id="clip0_27_9">
<rect width="242" height="57.5536" fill="white"/>
</clipPath>
</defs>
</svg>
