<svg width="25" height="25" viewBox="0 0 25 25" fill="none" xmlns="http://www.w3.org/2000/svg">
<path d="M0.41748 24.5825L2.14543 18.2699C1.07916 16.4222 0.518883 14.3275 0.519908 12.1796C0.522981 5.46449 5.98747 0 12.7016 0C15.9598 0.00102427 19.0183 1.2701 21.3188 3.57266C23.6183 5.87522 24.8843 8.93575 24.8832 12.1909C24.8802 18.907 19.4157 24.3715 12.7016 24.3715C10.6633 24.3705 8.65468 23.8594 6.87552 22.8884L0.41748 24.5825ZM7.1746 20.6831C8.89128 21.7023 10.5301 22.3127 12.6975 22.3138C18.2777 22.3138 22.8234 17.7721 22.8265 12.1888C22.8286 6.59426 18.3043 2.05879 12.7057 2.05674C7.12134 2.05674 2.57869 6.59836 2.57665 12.1806C2.57562 14.4596 3.24345 16.1661 4.36503 17.9514L3.34178 21.6879L7.1746 20.6831ZM18.838 15.0865C18.7622 14.9595 18.5594 14.8837 18.2542 14.7311C17.9499 14.5785 16.4535 13.842 16.1739 13.7406C15.8953 13.6392 15.6924 13.588 15.4886 13.8932C15.2858 14.1974 14.702 14.8837 14.5248 15.0865C14.3476 15.2893 14.1694 15.3149 13.8651 15.1623C13.5609 15.0097 12.5797 14.6891 11.4171 13.6515C10.5127 12.8444 9.90122 11.8478 9.72402 11.5425C9.54682 11.2383 9.70558 11.0734 9.85717 10.9218C9.99442 10.7856 10.1614 10.5664 10.314 10.3882C10.4687 10.212 10.5189 10.085 10.6213 9.88115C10.7227 9.67835 10.6725 9.50012 10.5957 9.34751C10.5189 9.19592 9.91043 7.6974 9.65744 7.08796C9.40956 6.49491 9.15862 6.5748 8.9722 6.56558L8.38837 6.55534C8.18556 6.55534 7.85574 6.63114 7.57714 6.93637C7.29854 7.2416 6.5119 7.97703 6.5119 9.47554C6.5119 10.9741 7.60275 12.4213 7.75434 12.6242C7.90696 12.827 9.90019 15.9018 12.9535 17.2201C13.6798 17.5335 14.2472 17.7209 14.6887 17.8613C15.4179 18.0927 16.0817 18.06 16.6061 17.9821C17.191 17.8951 18.4068 17.2457 18.6608 16.5348C18.9148 15.823 18.9148 15.2135 18.838 15.0865Z" fill="white"/>
</svg>
