<svg width="26" height="25" viewBox="0 0 26 25" fill="none" xmlns="http://www.w3.org/2000/svg">
<g clip-path="url(#clip0_18_681)">
<path d="M25.0852 7.37482C25.0852 7.37482 24.8452 5.67997 24.1058 4.93577C23.1695 3.95631 22.1228 3.95151 21.6427 3.89389C18.205 3.64423 13.0436 3.64423 13.0436 3.64423H13.034C13.034 3.64423 7.87265 3.64423 4.43494 3.89389C3.95481 3.95151 2.90813 3.95631 1.97188 4.93577C1.23249 5.67997 0.997225 7.37482 0.997225 7.37482C0.997225 7.37482 0.747559 9.36735 0.747559 11.3551V13.218C0.747559 15.2057 0.992424 17.1982 0.992424 17.1982C0.992424 17.1982 1.23249 18.8931 1.96708 19.6373C2.90333 20.6167 4.13246 20.5831 4.6798 20.6888C6.64833 20.876 13.0388 20.9336 13.0388 20.9336C13.0388 20.9336 18.205 20.924 21.6427 20.6792C22.1228 20.6215 23.1695 20.6167 24.1058 19.6373C24.8452 18.8931 25.0852 17.1982 25.0852 17.1982C25.0852 17.1982 25.3301 15.2105 25.3301 13.218V11.3551C25.3301 9.36735 25.0852 7.37482 25.0852 7.37482ZM10.499 15.4794V8.57033L17.1391 12.0369L10.499 15.4794Z" fill="white"/>
</g>
<defs>
<clipPath id="clip0_18_681">
<rect width="24.5825" height="24.5825" fill="white" transform="translate(0.747559)"/>
</clipPath>
</defs>
</svg>
